<svg width="1600" height="1600" viewBox="0 0 1600 1600" fill="none" xmlns="http://www.w3.org/2000/svg" role="img" aria-labelledby="title desc">
  <title id="title">Harbourview globe</title>
  <desc id="desc">Premium dark navy globe with raised metallic gold market plates.</desc>
  <defs>
    <radialGradient id="ocean" cx="36%" cy="26%" r="72%">
      <stop offset="0" stop-color="#1B314B"/>
      <stop offset="0.42" stop-color="#071526"/>
      <stop offset="0.78" stop-color="#020813"/>
      <stop offset="1" stop-color="#000309"/>
    </radialGradient>
    <linearGradient id="gold" x1="290" y1="220" x2="1160" y2="1280" gradientUnits="userSpaceOnUse">
      <stop offset="0" stop-color="#F3D98A"/>
      <stop offset="0.26" stop-color="#C6A55A"/>
      <stop offset="0.56" stop-color="#8E641F"/>
      <stop offset="0.76" stop-color="#D9B866"/>
      <stop offset="1" stop-color="#6E4717"/>
    </linearGradient>
    <filter id="plateShadow" x="-20%" y="-20%" width="140%" height="140%">
      <feDropShadow dx="0" dy="8" stdDeviation="8" flood-color="#000000" flood-opacity="0.72"/>
      <feDropShadow dx="0" dy="-1" stdDeviation="1" flood-color="#FFE6A3" flood-opacity="0.35"/>
    </filter>
    <filter id="globeShadow" x="-20%" y="-20%" width="140%" height="140%">
      <feDropShadow dx="-20" dy="34" stdDeviation="38" flood-color="#000000" flood-opacity="0.85"/>
    </filter>
    <clipPath id="sphereClip"><circle cx="800" cy="800" r="690"/></clipPath>
    <pattern id="scratch" patternUnits="userSpaceOnUse" width="64" height="64">
      <path d="M8 20h34M16 42h28M48 12h10" stroke="#FFE6A3" stroke-opacity="0.08" stroke-width="2"/>
    </pattern>
  </defs>

  <g filter="url(#globeShadow)">
    <circle cx="800" cy="800" r="690" fill="url(#ocean)"/>
    <circle cx="800" cy="800" r="690" fill="none" stroke="#C6A55A" stroke-opacity="0.26" stroke-width="5"/>
    <circle cx="650" cy="540" r="520" fill="white" opacity="0.055"/>
    <ellipse cx="555" cy="760" rx="210" ry="610" fill="white" opacity="0.035"/>
  </g>

  <g clip-path="url(#sphereClip)" filter="url(#plateShadow)">
    <path d="M510 270l120-54 150 18 76 58-22 78 94 28 70 82-40 80-124-10-64-82-118-24-80 44-112-26-84 34-58-88 80-84 112-54z" fill="url(#gold)" stroke="#1A0F04" stroke-width="7"/>
    <path d="M382 520l190-52 150 42 82 128-58 106 34 120-80 106-134-28-70-130-104-28-68-128 58-136z" fill="url(#gold)" stroke="#1A0F04" stroke-width="7"/>
    <path d="M640 430l164 32 102 96-62 82 72 76-56 130-118 42-38-128 48-118-82-60-82-88 52-64z" fill="url(#gold)" stroke="#1A0F04" stroke-width="7"/>
    <path d="M870 372l210 50 144 122-38 126-146 16-54 90-116-52-36-110 78-80-78-70 36-92z" fill="url(#gold)" stroke="#1A0F04" stroke-width="7"/>
    <path d="M1048 682l154 18 108 94-8 166-112 104-156-38-70-112 36-124 48-108z" fill="url(#gold)" stroke="#1A0F04" stroke-width="7"/>
    <path d="M690 884l152 36 94 116-42 178-124 116-132-90-32-150 84-206z" fill="url(#gold)" stroke="#1A0F04" stroke-width="7"/>
    <path d="M432 870l168 48 56 178-72 168-138 70-94-118 18-192 62-154z" fill="url(#gold)" stroke="#1A0F04" stroke-width="7"/>
    <path d="M1190 402l112 32 76 78-34 82-116-14-74-70 36-108z" fill="url(#gold)" stroke="#1A0F04" stroke-width="7"/>
    <path d="M1016 1050l130 52 72 126-54 120-126 30-94-88 12-148 60-92z" fill="url(#gold)" stroke="#1A0F04" stroke-width="7"/>

    <g stroke="#2A1704" stroke-width="4" opacity="0.74">
      <path d="M536 292l96 152M704 238l-52 206M834 370l-64 98M454 556l292 188M392 650l388 210M526 818l174 124M474 1026l132 64M716 946l178 90M1010 730l190 42M1110 932l-76 94M934 484l102 178M1094 430l-54 256"/>
    </g>
    <rect x="260" y="190" width="1080" height="1130" fill="url(#scratch)" opacity="0.5"/>
  </g>

  <circle cx="800" cy="800" r="690" fill="none" stroke="#FFFFFF" stroke-opacity="0.04" stroke-width="18"/>
  <path d="M232 508c182-322 572-478 928-340" stroke="#F8D982" stroke-opacity="0.22" stroke-width="7" stroke-linecap="round"/>
  <path d="M1218 356c178 156 278 400 246 646" stroke="#F8D982" stroke-opacity="0.16" stroke-width="5" stroke-linecap="round"/>
</svg>
