<svg width="1600" height="1600" viewBox="0 0 1600 1600" fill="none" xmlns="http://www.w3.org/2000/svg" role="img" aria-labelledby="title desc">
  <title id="title">Harbourview globe</title>
  <desc id="desc">Premium dark navy globe with metallic gold continents and refined country borders.</desc>
  <defs>
    <radialGradient id="ocean" cx="32%" cy="28%" r="76%">
      <stop offset="0" stop-color="#203449"/>
      <stop offset="0.34" stop-color="#0A1726"/>
      <stop offset="0.74" stop-color="#020711"/>
      <stop offset="1" stop-color="#000000"/>
    </radialGradient>
    <radialGradient id="oceanSheen" cx="28%" cy="34%" r="68%">
      <stop offset="0" stop-color="#FFFFFF" stop-opacity="0.08"/>
      <stop offset="0.5" stop-color="#FFFFFF" stop-opacity="0.02"/>
      <stop offset="1" stop-color="#FFFFFF" stop-opacity="0"/>
    </radialGradient>
    <linearGradient id="gold" x1="350" y1="160" x2="1210" y2="1320" gradientUnits="userSpaceOnUse">
      <stop offset="0" stop-color="#FFF2B8"/>
      <stop offset="0.18" stop-color="#E9C669"/>
      <stop offset="0.42" stop-color="#B5822C"/>
      <stop offset="0.6" stop-color="#F0CF79"/>
      <stop offset="0.78" stop-color="#98681F"/>
      <stop offset="1" stop-color="#F7DB8D"/>
    </linearGradient>
    <linearGradient id="goldAlt" x1="430" y1="260" x2="1100" y2="1230" gradientUnits="userSpaceOnUse">
      <stop offset="0" stop-color="#F9DE90"/>
      <stop offset="0.48" stop-color="#85581C"/>
      <stop offset="0.8" stop-color="#D9AB4A"/>
      <stop offset="1" stop-color="#5C3710"/>
    </linearGradient>
    <filter id="sphereShadow" x="-18%" y="-18%" width="136%" height="136%">
      <feDropShadow dx="-28" dy="42" stdDeviation="52" flood-color="#000000" flood-opacity="0.9"/>
    </filter>
    <filter id="landLift" x="-15%" y="-15%" width="130%" height="130%">
      <feDropShadow dx="0" dy="12" stdDeviation="7" flood-color="#000000" flood-opacity="0.8"/>
      <feDropShadow dx="0" dy="-2" stdDeviation="2" flood-color="#FFF1B5" flood-opacity="0.45"/>
    </filter>
    <clipPath id="sphereClip"><circle cx="800" cy="800" r="690"/></clipPath>
    <pattern id="brushed" patternUnits="userSpaceOnUse" width="84" height="84">
      <path d="M10 20h46M18 46h52M6 68h30" stroke="#FFF4C6" stroke-opacity="0.08" stroke-width="2"/>
      <path d="M54 12h18M42 60h28" stroke="#2A1704" stroke-opacity="0.1" stroke-width="1.4"/>
    </pattern>
  </defs>

  <rect width="1600" height="1600" fill="#000000"/>

  <g filter="url(#sphereShadow)">
    <circle cx="800" cy="800" r="690" fill="url(#ocean)"/>
    <circle cx="800" cy="800" r="690" fill="url(#oceanSheen)"/>
    <ellipse cx="500" cy="740" rx="150" ry="520" fill="#FFFFFF" opacity="0.05"/>
    <ellipse cx="730" cy="520" rx="460" ry="280" fill="#FFFFFF" opacity="0.035"/>
    <circle cx="800" cy="800" r="690" fill="none" stroke="#F2CE74" stroke-opacity="0.22" stroke-width="6"/>
    <circle cx="800" cy="800" r="674" fill="none" stroke="#FFF1B0" stroke-opacity="0.08" stroke-width="2"/>
  </g>

  <g clip-path="url(#sphereClip)">
    <g filter="url(#landLift)">
      <path d="M336 418l110-44 126 8 119-24 118 10 113 12 105-16 90 28 88 40 34 34-18 26-55 10-63-8-57 12-53-13-72 18-55-10-68 10-83-17-65 20-95-8-88 18-64-17-69 19-57-8-53-30 14-30z" fill="url(#goldAlt)" stroke="#100802" stroke-width="6" stroke-linejoin="round"/>
      <path d="M430 521l47-27 51 7 44-15 38 8 35 25 48 3 35 30-17 32 39 24-22 34-51 4-24 27-47-10-26 17-47-6-19-37-35-24-7-40-34-25z" fill="url(#gold)" stroke="#100802" stroke-width="6" stroke-linejoin="round"/>
      <path d="M394 612l74-21 79 18 46 71-29 61 18 76-47 62-77-16-39-73-59-16-37-71 25-70z" fill="url(#goldAlt)" stroke="#100802" stroke-width="7" stroke-linejoin="round"/>
      <path d="M552 587l72 13 43 38-25 36 31 30-18 52-48 18-15-50 19-49-37-28-31-33 17-27z" fill="url(#gold)" stroke="#100802" stroke-width="6" stroke-linejoin="round"/>
      <path d="M642 555l104 23 74 61-17 66-75 8-28 48-61-27-18-58 40-42-40-34 21-45z" fill="url(#goldAlt)" stroke="#100802" stroke-width="7" stroke-linejoin="round"/>
      <path d="M744 690l55 11 36 43-12 52-36 30-48-11-23-41 12-51 16-33z" fill="url(#gold)" stroke="#100802" stroke-width="6" stroke-linejoin="round"/>
      <path d="M819 570l101 24 64 54-17 56-69 8-25 42-57-25-18-56 37-39-37-32 21-32z" fill="url(#goldAlt)" stroke="#100802" stroke-width="7" stroke-linejoin="round"/>
      <path d="M933 688l82 9 57 49-4 88-58 54-82-21-35-58 18-65 22-56z" fill="url(#gold)" stroke="#100802" stroke-width="7" stroke-linejoin="round"/>
      <path d="M541 817l68 15 43 55-20 81-56 52-61-42-14-68 40-93z" fill="url(#gold)" stroke="#100802" stroke-width="7" stroke-linejoin="round"/>
      <path d="M672 995l22 9 13 22-10 20-21 5-16-15 2-26 10-15z" fill="url(#gold)" stroke="#100802" stroke-width="5" stroke-linejoin="round"/>
      <path d="M397 489l18-12 20 2 14 16-8 18-19 4-20-8-6-20z" fill="url(#gold)" stroke="#100802" stroke-width="4"/>
      <path d="M323 446l18-8 20 4 3 14-16 10-21-3-9-10 5-7z" fill="url(#gold)" stroke="#100802" stroke-width="4"/>
      <path d="M1116 625l16 14 2 22-13 15-20-2-8-18 8-20 15-11z" fill="url(#gold)" stroke="#100802" stroke-width="4"/>
      <path d="M198 283l163-25 119 10-9 26-128 12-125 21-37-9 17-35z" fill="url(#goldAlt)" stroke="#100802" stroke-width="5"/>
      <path d="M483 261l106-9 78 5-2 19-94 9-88 18-17-16 17-26z" fill="url(#goldAlt)" stroke="#100802" stroke-width="5"/>
      <path d="M698 253l61 1 1 20-61 6-10-12 9-15z" fill="url(#goldAlt)" stroke="#100802" stroke-width="5"/>
      <path d="M791 257l20 0 5 14-13 9-15-2-4-10 7-11z" fill="url(#goldAlt)" stroke="#100802" stroke-width="4"/>
      <path d="M830 262l14 1 3 10-11 7-12-2-3-8 9-8z" fill="url(#goldAlt)" stroke="#100802" stroke-width="4"/>
      <path d="M861 266l14 1 3 10-11 7-12-2-3-8 9-8z" fill="url(#goldAlt)" stroke="#100802" stroke-width="4"/>
      <path d="M972 289l59-20 73 16-10 22-60 3-63 10-16-14 17-17z" fill="url(#goldAlt)" stroke="#100802" stroke-width="5"/>
    </g>

    <g opacity="0.85" stroke="#2A1704" stroke-width="3" stroke-linecap="round">
      <path d="M470 497l51 75M585 491l-28 110M652 553l-33 48M406 657l154 97M376 703l204 111M444 844l96 69M418 951l72 34M582 803l94 47M749 700l102 23M803 808l-41 52M693 575l56 95M779 546l-30 135"/>
      <path d="M508 522l19 78M533 527l56-31M613 517l-23 77M710 584l-24 53M846 606l33 63M908 614l-21 86M972 731l47 11M955 791l-18 58"/>
      <path d="M396 616l69-2M463 614l47-5M510 613l33 18M421 743l97 58M468 885l48 24M535 633l27 48M545 697l-26 44M526 772l21 58"/>
      <path d="M856 409l-48 44M820 420l-12 56M775 414l-13 63M735 418l8 62M647 413l25 74M554 425l-25 63M481 439l-52 32"/>
      <path d="M891 575l88-12M972 564l55 28M1031 592l39 33M278 282l-35 23M1031 278l-37 21"/>
    </g>

    <rect x="190" y="190" width="1220" height="1130" fill="url(#brushed)" opacity="0.36"/>
  </g>

  <path d="M232 508c182-322 572-478 928-340" stroke="#F8D982" stroke-opacity="0.22" stroke-width="7" stroke-linecap="round"/>
  <path d="M1218 356c178 156 278 400 246 646" stroke="#F8D982" stroke-opacity="0.16" stroke-width="5" stroke-linecap="round"/>
  <circle cx="800" cy="800" r="690" fill="none" stroke="#FFFFFF" stroke-opacity="0.04" stroke-width="18"/>
</svg>
